HIERARCHY
ROOT root
{
	OFFSET 0.000000 0.054209 0.736571
	CHANNELS 6 Xposition Yposition Zposition Xrotation Yrotation Zrotation
	JOINT spine04
	{
		OFFSET 0.000000 -0.030951 0.078754
		CHANNELS 6 Xposition Yposition Zposition Xrotation Yrotation Zrotation
		JOINT spine02
		{
			OFFSET 0.000000 -0.000238 0.104623
			CHANNELS 6 Xposition Yposition Zposition Xrotation Yrotation Zrotation
			JOINT spine01
			{
				OFFSET 0.000000 0.017421 0.109292
				CHANNELS 3 Xrotation Yrotation Zrotation
				JOINT neck01
				{
					OFFSET 0.000000 -0.049753 0.167208
					CHANNELS 6 Xposition Yposition Zposition Xrotation Yrotation Zrotation
					JOINT neck02
					{
						OFFSET 0.000000 0.005512 0.021216
						CHANNELS 3 Xrotation Yrotation Zrotation
						JOINT jaw
						{
							OFFSET 0.000000 -0.043572 0.063270
							CHANNELS 6 Xposition Yposition Zposition Xrotation Yrotation Zrotation
							End Site
							{
								OFFSET 0.000000 -0.008974 0.006557
							}
						}
						JOINT eye.L
						{
							OFFSET 0.023674 -0.098122 0.090003
							CHANNELS 3 Xrotation Yrotation Zrotation
							End Site
							{
								OFFSET 0.001819 -0.030370 -0.004421
							}
						}
						JOINT orbicularis03.L
						{
							OFFSET 0.023674 -0.098122 0.090003
							CHANNELS 3 Xrotation Yrotation Zrotation
							End Site
							{
								OFFSET 0.001761 -0.029014 0.005250
							}
						}
						JOINT eye.R
						{
							OFFSET -0.023674 -0.098122 0.090003
							CHANNELS 3 Xrotation Yrotation Zrotation
							End Site
							{
								OFFSET -0.001819 -0.030370 -0.004420
							}
						}
						JOINT orbicularis03.R
						{
							OFFSET -0.023674 -0.098122 0.090003
							CHANNELS 3 Xrotation Yrotation Zrotation
							End Site
							{
								OFFSET -0.001761 -0.029014 0.005250
							}
						}
						End Site
						{
							OFFSET 0.000000 0.005512 0.021217
						}
					}
				}
				JOINT clavicle.R
				{
					OFFSET -0.018367 -0.058465 0.107155
					CHANNELS 6 Xposition Yposition Zposition Xrotation Yrotation Zrotation
					JOINT upperarm01.R
					{
						OFFSET -0.132020 0.003642 -0.024313
						CHANNELS 6 Xposition Yposition Zposition Xrotation Yrotation Zrotation
						JOINT lowerarm01.R
						{
							OFFSET -0.133638 0.001770 -0.153088
							CHANNELS 6 Xposition Yposition Zposition Xrotation Yrotation Zrotation
							JOINT wrist.R
							{
								OFFSET -0.108575 -0.154815 -0.103768
								CHANNELS 6 Xposition Yposition Zposition Xrotation Yrotation Zrotation
								JOINT finger2-1.R
								{
									OFFSET -0.024321 -0.084906 -0.032804
									CHANNELS 3 Xrotation Yrotation Zrotation
									JOINT finger2-2.R
									{
										OFFSET -0.002927 -0.018838 -0.012653
										CHANNELS 3 Xrotation Yrotation Zrotation
										JOINT finger2-3.R
										{
											OFFSET 0.000460 -0.015088 -0.013862
											CHANNELS 3 Xrotation Yrotation Zrotation
											End Site
											{
												OFFSET 0.003042 -0.016084 -0.016987
											}
										}
									}
								}
								JOINT finger3-1.R
								{
									OFFSET -0.038828 -0.069770 -0.043127
									CHANNELS 3 Xrotation Yrotation Zrotation
									JOINT finger3-2.R
									{
										OFFSET -0.006387 -0.018854 -0.022184
										CHANNELS 3 Xrotation Yrotation Zrotation
										JOINT finger3-3.R
										{
											OFFSET -0.002379 -0.015757 -0.018305
											CHANNELS 3 Xrotation Yrotation Zrotation
											End Site
											{
												OFFSET 0.000156 -0.013802 -0.019326
											}
										}
									}
								}
								JOINT finger4-1.R
								{
									OFFSET -0.045586 -0.054771 -0.050312
									CHANNELS 3 Xrotation Yrotation Zrotation
									JOINT finger4-2.R
									{
										OFFSET -0.008217 -0.013209 -0.021152
										CHANNELS 3 Xrotation Yrotation Zrotation
										JOINT finger4-3.R
										{
											OFFSET -0.003838 -0.011895 -0.018031
											CHANNELS 3 Xrotation Yrotation Zrotation
											End Site
											{
												OFFSET -0.002024 -0.010563 -0.020894
											}
										}
									}
								}
								JOINT finger5-1.R
								{
									OFFSET -0.046820 -0.037780 -0.058682
									CHANNELS 3 Xrotation Yrotation Zrotation
									JOINT finger5-2.R
									{
										OFFSET -0.005233 -0.007322 -0.016539
										CHANNELS 3 Xrotation Yrotation Zrotation
										JOINT finger5-3.R
										{
											OFFSET -0.001524 -0.005483 -0.012548
											CHANNELS 3 Xrotation Yrotation Zrotation
											End Site
											{
												OFFSET -0.002248 -0.006725 -0.016024
											}
										}
									}
								}
								JOINT finger1-1.R
								{
									OFFSET -0.000927 -0.039280 -0.005363
									CHANNELS 3 Xrotation Yrotation Zrotation
									JOINT finger1-2.R
									{
										OFFSET 0.018386 -0.018805 -0.006895
										CHANNELS 3 Xrotation Yrotation Zrotation
										JOINT finger1-3.R
										{
											OFFSET 0.010991 -0.028095 -0.011249
											CHANNELS 3 Xrotation Yrotation Zrotation
											End Site
											{
												OFFSET 0.004840 -0.019091 -0.014527
											}
										}
									}
								}
							}
						}
					}
				}
				JOINT clavicle.L
				{
					OFFSET 0.018367 -0.058464 0.107155
					CHANNELS 6 Xposition Yposition Zposition Xrotation Yrotation Zrotation
					JOINT upperarm01.L
					{
						OFFSET 0.132020 0.003642 -0.024313
						CHANNELS 6 Xposition Yposition Zposition Xrotation Yrotation Zrotation
						JOINT lowerarm01.L
						{
							OFFSET 0.133638 0.001770 -0.153088
							CHANNELS 6 Xposition Yposition Zposition Xrotation Yrotation Zrotation
							JOINT wrist.L
							{
								OFFSET 0.108574 -0.154815 -0.103768
								CHANNELS 6 Xposition Yposition Zposition Xrotation Yrotation Zrotation
								JOINT finger2-1.L
								{
									OFFSET 0.024321 -0.084906 -0.032804
									CHANNELS 3 Xrotation Yrotation Zrotation
									JOINT finger2-2.L
									{
										OFFSET 0.002927 -0.018838 -0.012653
										CHANNELS 3 Xrotation Yrotation Zrotation
										JOINT finger2-3.L
										{
											OFFSET -0.000460 -0.015088 -0.013862
											CHANNELS 3 Xrotation Yrotation Zrotation
											End Site
											{
												OFFSET -0.003042 -0.016083 -0.016987
											}
										}
									}
								}
								JOINT finger3-1.L
								{
									OFFSET 0.038828 -0.069770 -0.043127
									CHANNELS 3 Xrotation Yrotation Zrotation
									JOINT finger3-2.L
									{
										OFFSET 0.006387 -0.018854 -0.022184
										CHANNELS 3 Xrotation Yrotation Zrotation
										JOINT finger3-3.L
										{
											OFFSET 0.002379 -0.015757 -0.018305
											CHANNELS 3 Xrotation Yrotation Zrotation
											End Site
											{
												OFFSET -0.000156 -0.013802 -0.019326
											}
										}
									}
								}
								JOINT finger4-1.L
								{
									OFFSET 0.045586 -0.054771 -0.050312
									CHANNELS 3 Xrotation Yrotation Zrotation
									JOINT finger4-2.L
									{
										OFFSET 0.008217 -0.013209 -0.021152
										CHANNELS 3 Xrotation Yrotation Zrotation
										JOINT finger4-3.L
										{
											OFFSET 0.003838 -0.011894 -0.018031
											CHANNELS 3 Xrotation Yrotation Zrotation
											End Site
											{
												OFFSET 0.002024 -0.010563 -0.020894
											}
										}
									}
								}
								JOINT finger5-1.L
								{
									OFFSET 0.046820 -0.037780 -0.058682
									CHANNELS 3 Xrotation Yrotation Zrotation
									JOINT finger5-2.L
									{
										OFFSET 0.005233 -0.007322 -0.016539
										CHANNELS 3 Xrotation Yrotation Zrotation
										JOINT finger5-3.L
										{
											OFFSET 0.001524 -0.005484 -0.012548
											CHANNELS 3 Xrotation Yrotation Zrotation
											End Site
											{
												OFFSET 0.002248 -0.006725 -0.016024
											}
										}
									}
								}
								JOINT finger1-1.L
								{
									OFFSET 0.000927 -0.039280 -0.005363
									CHANNELS 3 Xrotation Yrotation Zrotation
									JOINT finger1-2.L
									{
										OFFSET -0.018386 -0.018805 -0.006894
										CHANNELS 3 Xrotation Yrotation Zrotation
										JOINT finger1-3.L
										{
											OFFSET -0.010991 -0.028095 -0.011249
											CHANNELS 3 Xrotation Yrotation Zrotation
											End Site
											{
												OFFSET -0.004839 -0.019091 -0.014527
											}
										}
									}
								}
							}
						}
					}
				}
			}
		}
	}
	JOINT upperleg01.R
	{
		OFFSET -0.087495 -0.048056 0.004242
		CHANNELS 6 Xposition Yposition Zposition Xrotation Yrotation Zrotation
		JOINT lowerleg01.R
		{
			OFFSET -0.034522 -0.027831 -0.333803
			CHANNELS 6 Xposition Yposition Zposition Xrotation Yrotation Zrotation
			JOINT foot.R
			{
				OFFSET -0.037458 0.009412 -0.349633
				CHANNELS 3 Xrotation Yrotation Zrotation
				JOINT toe1-1.R
				{
					OFFSET -0.003290 -0.101211 -0.050981
					CHANNELS 6 Xposition Yposition Zposition Xrotation Yrotation Zrotation
					End Site
					{
						OFFSET 0.000524 -0.066142 0.003009
					}
				}
			}
		}
	}
	JOINT upperleg01.L
	{
		OFFSET 0.087495 -0.048056 0.004242
		CHANNELS 6 Xposition Yposition Zposition Xrotation Yrotation Zrotation
		JOINT lowerleg01.L
		{
			OFFSET 0.034522 -0.027831 -0.333803
			CHANNELS 6 Xposition Yposition Zposition Xrotation Yrotation Zrotation
			JOINT foot.L
			{
				OFFSET 0.037458 0.009412 -0.349633
				CHANNELS 3 Xrotation Yrotation Zrotation
				JOINT toe1-1.L
				{
					OFFSET 0.003290 -0.101211 -0.050981
					CHANNELS 6 Xposition Yposition Zposition Xrotation Yrotation Zrotation
					End Site
					{
						OFFSET -0.000524 -0.066142 0.003009
					}
				}
			}
		}
	}
}
MOTION
Frames: 4
Frame Time:	0.016667
0.163 -0.8031 0.6358 -34.1077 104.3416 -37.8121 0 -0.0376 0.0793 21.4685 2.8538 -0.0863 0.0004 -0.0077 0.1104 37.1049 0.6832 -1.0816 0 0 0 0 -0.0427 0.1613 44.411 0.3119 -5.7074 -44.0393 -19.0041 -3.2804 0 -0.0436 0.0633 0.0001 -0.0001 0 9.3612 0.0879 1.0683 0 0 0 9.3328 0.1263 1.5413 0 0 0.0001 -0.0184 -0.0578 0.1112 2.0447 -4.8372 -9.8727 -0.1356 -0.0037 -0.0169 59.8972 27.4274 -9.3858 -0.1336 0.0018 -0.1531 -6.0199 -8.4807 43.4195 -0.1086 -0.1548 -0.1038 -22.4842 11.6382 17.327 4.8791 -7.0713 -11.1667 10.5363 -9.6638 6.2715 10.9329 -8.9509 5.4607 -3.8871 -1.8023 -0.2691 13.7949 -17.68 9.0214 7.0688 -11.9198 2.9931 -8.9468 -0.7531 2.2518 11.3166 -17.6919 4.2976 4.7687 -13.2714 1.642 -13.3674 -5.9875 2.9202 7.858 -15.2304 -0.5031 7.694 -16.5391 0.4565 -8.3191 -34.8045 -30.5036 8.5959 10.1797 -21.4373 0.0209 15.4595 -31.4842 0.0184 -0.0578 0.1067 1.2432 3.2515 5.6427 0.1356 -0.0037 -0.0169 68.2645 32.4023 53.0127 0.1336 0.0018 -0.1531 -32.4891 53.0027 -83.5481 0.1086 -0.1548 -0.1038 -25.0045 -26.6585 7.2521 1.2994 2.7028 15.4146 6.5955 6.9065 -3.1296 8.5352 7.2781 -3.8134 -6.603 -2.6439 3.0206 10.3427 14.094 -5.3935 5.7828 10.2408 -1.7943 -11.1335 -3.3609 -0.7833 9.0044 14.1095 -1.9931 3.6503 11.2934 -0.7171 -15.7237 1.7932 -1.8492 5.9724 11.1798 2.1827 6.6818 14.4762 0.3368 -3.6058 30.1532 24.4132 6.8086 -4.0982 8.1204 -4.1933 -6.1582 17.2406 -0.0875 -0.0481 0.0042 -25.3774 -9.8793 -3.9078 -0.0345 -0.0278 -0.3338 83.7827 1.2335 -11.7442 8.5642 -25.8526 6.0664 -0.0033 -0.1012 -0.051 0 0 0 0.0875 -0.0481 0.0042 -42.7704 4.0253 -3.4314 0.0345 -0.0278 -0.3338 97.9991 8.7578 4.2346 20.983 -21.4461 10.6193 0.0033 -0.1012 -0.051 0 0 0 
0.1564 -0.8117 0.6384 -30.1131 105.3507 -44.1974 0.0001 -0.0376 0.0793 21.5129 2.8922 -0.3581 0.0005 -0.0077 0.1103 37.0988 1.2246 -1.3753 0 0 0 0 -0.0427 0.1613 45.262 0.562 -5.4875 -44.4984 -17.4114 -1.9096 0 -0.0436 0.0633 0.0001 -0.0001 0.0001 9.5493 0.0913 1.0884 0 -0.0001 0 9.52 0.1304 1.5617 0 -0.0001 0 -0.0184 -0.0577 0.1111 2.0809 -4.8444 -10.0321 -0.1356 -0.0037 -0.0169 60.6726 31.8307 -12.0864 -0.1336 0.0018 -0.1531 -7.3614 -9.8771 44.9103 -0.1086 -0.1548 -0.1038 -20.3975 7.4339 16.2859 4.885 -7.0786 -11.1578 10.5795 -9.6878 6.3112 10.883 -8.9223 5.415 -3.8467 -1.8721 -0.2175 13.8604 -17.74 9.094 7.0906 -11.9454 3.0177 -8.9882 -0.7666 2.2665 11.3142 -17.6885 4.295 4.7474 -13.237 1.6197 -13.3643 -6.1081 2.9629 7.89 -15.2938 -0.4709 7.7122 -16.5732 0.4747 -8.2114 -34.7328 -30.6267 8.72 10.3046 -21.7957 0.1661 15.6043 -31.7994 0.0184 -0.0577 0.1066 1.2714 3.2631 5.7664 0.1356 -0.0037 -0.0169 69.7627 32.9984 53.0341 0.1336 0.0018 -0.1531 -31.9855 52.3794 -83.0741 0.1086 -0.1548 -0.1038 -27.27 -26.9579 4.9067 1.1864 2.5953 15.5216 6.5142 6.8543 -3.0558 8.398 7.1926 -3.6883 -6.7398 -2.7849 3.1076 10.2351 13.9794 -5.273 5.6824 10.1166 -1.6811 -11.2881 -3.5023 -0.7448 8.9088 13.9607 -1.8885 3.5636 11.1462 -0.6262 -15.8678 1.688 -1.8273 5.8979 11.0181 2.2568 6.6052 14.3254 0.4128 -3.5996 30.153 24.4012 6.7668 -4.0407 7.993 -4.2479 -6.0794 17.1103 -0.0875 -0.0481 0.0042 -24.1117 -10.0368 -3.1846 -0.0345 -0.0278 -0.3338 84.422 2.4389 -12.8861 9.4706 -25.3936 8.2483 -0.0033 -0.1012 -0.051 0 0 0 0.0875 -0.0481 0.0042 -40.2487 3.4455 -3.3597 0.0345 -0.0278 -0.3338 98.2675 10.6276 2.185 21.2445 -21.3911 13.9087 0.0033 -0.1012 -0.051 0 0 0 
0.1485 -0.8213 0.6404 -27.7073 106.3033 -49.5487 0.0002 -0.0376 0.0792 21.2933 2.8343 -0.6871 0.0007 -0.0077 0.1103 36.9078 1.7831 -1.673 0 0 0 0 -0.0426 0.1613 43.4509 0.7733 -4.7329 -42.2309 -14.935 -0.3078 0 -0.0436 0.0633 0.0001 -0.0001 0 9.7233 0.0937 1.0977 0 0 0 9.6935 0.1335 1.571 0 0 0.0001 -0.0184 -0.0577 0.111 2.1262 -4.8543 -10.2247 -0.1356 -0.0037 -0.0169 60.6775 37.1433 -16.6974 -0.1336 0.0018 -0.1531 -7.9492 -11.543 48.1498 -0.1086 -0.1548 -0.1038 -18.3276 3.7323 16.2221 4.879 -7.0734 -11.1639 10.5896 -9.6934 6.3204 10.8488 -8.9028 5.3837 -3.8094 -1.9294 -0.1752 13.9118 -17.7869 9.1509 7.1185 -11.978 3.049 -9.003 -0.7812 2.2772 11.3179 -17.6936 4.299 4.7416 -13.2277 1.6136 -13.3579 -6.1746 2.9862 7.9094 -15.3319 -0.4515 7.7251 -16.5975 0.4876 -8.1576 -34.6971 -30.6883 8.7828 10.3672 -21.9762 0.2399 15.6773 -31.9591 0.0184 -0.0577 0.1066 1.2904 3.2743 5.8462 0.1356 -0.0037 -0.0169 71.2364 33.418 53.2042 0.1336 0.0018 -0.1531 -30.3037 51.8581 -83.623 0.1086 -0.1548 -0.1038 -30.2013 -29.1498 2.4623 1.127 2.5374 15.5794 6.4687 6.825 -3.0144 8.3256 7.1474 -3.6224 -6.8114 -2.862 3.1554 10.1765 13.9167 -5.2073 5.6277 10.0488 -1.6194 -11.3684 -3.5816 -0.7219 8.857 13.8797 -1.8316 3.5163 11.0654 -0.5766 -15.9431 1.6253 -1.8134 5.8575 10.93 2.2971 6.5631 14.2422 0.4546 -3.6023 30.1577 24.3864 6.7384 -4.0015 7.9064 -4.2841 -6.0271 17.0238 -0.0875 -0.0481 0.0042 -23.5058 -10.0407 -2.2908 -0.0345 -0.0278 -0.3338 85.266 3.5361 -14.0095 10.9467 -24.2005 11.1869 -0.0033 -0.1012 -0.051 0 0 0 0.0875 -0.0481 0.0042 -38.1123 3.1107 -3.2602 0.0345 -0.0278 -0.3338 98.7307 12.5872 -0.0034 21.2533 -21.0932 17.04 0.0033 -0.1012 -0.051 0 0 0 
0.1431 -0.828 0.6409 -26.3814 106.7674 -53.0494 0.0003 -0.0376 0.0792 21.053 2.8377 -0.9144 0.0007 -0.0077 0.1102 36.7189 2.2148 -1.8941 0 0 0 0 -0.0426 0.1613 41.3948 0.8464 -4.148 -39.9562 -13.217 0.7288 0 -0.0436 0.0633 0 -0.0001 0 9.8442 0.095 1.1017 -0.0001 0 0 9.814 0.1353 1.5751 0 0 0.0001 -0.0184 -0.0577 0.1109 2.1493 -4.8565 -10.3338 -0.1356 -0.0037 -0.0169 60.4852 41.0059 -19.9128 -0.1336 0.0018 -0.1531 -8.1648 -12.8818 50.4247 -0.1086 -0.1548 -0.1038 -16.4941 0.7291 15.9299 4.8596 -7.0566 -11.1837 10.6016 -9.7001 6.3315 10.7718 -8.8585 5.3131 -3.7422 -2.035 -0.0971 14.0072 -17.8738 9.2566 7.1674 -12.0351 3.1039 -9.0183 -0.837 2.3102 11.3405 -17.7251 4.3236 4.7436 -13.2308 1.6156 -13.3495 -6.301 3.0307 7.945 -15.4018 -0.4159 7.7473 -16.6391 0.5098 -8.0516 -34.6265 -30.8113 8.9076 10.4903 -22.3336 0.3865 15.8211 -32.2755 0.0184 -0.0577 0.1066 1.2934 3.2794 5.8497 0.1356 -0.0037 -0.0169 71.954 33.812 53.6285 0.1336 0.0018 -0.1531 -28.5788 51.6355 -84.7302 0.1086 -0.1548 -0.1038 -32.4854 -32.0188 1.1551 0.997 2.41 15.7058 6.3656 6.7584 -2.9208 8.168 7.0485 -3.4787 -6.9673 -3.034 3.2618 10.0461 13.7767 -5.061 5.5061 9.8973 -1.4822 -11.5415 -3.7614 -0.6686 8.742 13.6993 -1.7056 3.4107 10.8849 -0.4659 -16.1056 1.478 -1.78 5.7677 10.7336 2.3864 6.4687 14.0552 0.5481 -3.6188 30.1756 24.3432 6.6673 -3.9029 7.6888 -4.3737 -5.8965 16.8086 -0.0875 -0.0481 0.0042 -23.4305 -9.7993 -1.5737 -0.0345 -0.0278 -0.3338 85.8822 4.2085 -14.7307 12.1575 -23.1063 13.3792 -0.0033 -0.1012 -0.051 0 0 0 0.0875 -0.0481 0.0042 -36.9228 3.2024 -3.12 0.0345 -0.0278 -0.3338 98.9489 13.9218 -1.5439 21.7191 -20.8052 19.2682 0.0033 -0.1012 -0.051 0 0 0 
